# xmcd CD database file
#
# Track frame offsets:
#	150
#	17315
#	27757
#	50160
#	67085
#	94660
#	103347
#	113422
#	125587
#	135742
#	141932
#	172985
#	190932
#	198045
#
# Disc length: 2836 seconds
#
# Revision: 0
# Processed by: cddbd v1.5.2PL0 Copyright (c) Steve Scherf et al.
# Submitted via: CDex 1.51
#
DISCID=bf0b120e
DTITLE=Various Artist - Africa En America
DYEAR=1992
DGENRE=Merengue
TTITLE0=Son - Cuba
TTITLE1=Plena - Puerto Rico
TTITLE2=Brokdown - Belice
TTITLE3=Merengue - Republica Dominicana
TTITLE4=Son de artesa - Mexico
TTITLE5=Son de arpa cacheteada - Mexico
TTITLE6=Son jarocho - Mexico
TTITLE7=Bomba - Puerto Rico
TTITLE8=Tonado Trinitaria - Cuba
TTITLE9=Marinera - Peru
TTITLE10=Nengan - Cuba
TTITLE11=Changui - Cuba
TTITLE12=Mento - Jamaica
TTITLE13=Meringue - Haiti
EXTD=YEAR: 1992
EXTT0=
EXTT1=
EXTT2=
EXTT3=
EXTT4=
EXTT5=
EXTT6=
EXTT7=
EXTT8=
EXTT9=
EXTT10=
EXTT11=
EXTT12=
EXTT13=
PLAYORDER=
